<?xml version="1.0" encoding="utf-8"?>
<!-- Generator: Adobe Illustrator 16.0.4, SVG Export Plug-In . SVG Version: 6.00 Build 0)  -->
<!DOCTYPE svg PUBLIC "-//W3C//DTD SVG 1.1//EN" "http://www.w3.org/Graphics/SVG/1.1/DTD/svg11.dtd">
<svg version="1.1" id="Layer_1" xmlns="http://www.w3.org/2000/svg" xmlns:xlink="http://www.w3.org/1999/xlink" x="0px" y="0px"
	 width="64px" height="128px" viewBox="0 0 64 128" enable-background="new 0 0 64 128" xml:space="preserve">
<g id="_x7B__x7D_">
	<g>
		<path fill="#FFFFFF" d="M35.449,67.248c-2.953,0-5.106,1.005-6.46,3.016c-1.354,2.01-2.03,5.57-2.03,10.685v3.938
			c0,5.742-0.861,9.673-2.584,11.792s-4.553,3.18-8.49,3.18h-3.281v-5.373h1.271c2.543,0,4.313-0.547,5.312-1.642
			c0.999-1.094,1.497-3.704,1.497-7.834v-2.625c0-5.659,0.656-9.829,1.969-12.51s3.541-4.676,6.686-5.988
			c-3.145-1.285-5.373-3.267-6.686-5.947c-1.312-2.68-1.969-6.85-1.969-12.51v-2.625c0-4.128-0.499-6.74-1.497-7.834
			c-0.998-1.093-2.769-1.641-5.312-1.641h-1.271v-5.373h3.281c3.938,0,6.768,1.06,8.49,3.179c1.723,2.119,2.584,6.036,2.584,11.751
			v3.979c0,4.621,0.602,8.06,1.805,10.315c1.203,2.255,3.432,3.384,6.686,3.384L35.449,67.248L35.449,67.248z"/>
	</g>
</g>
</svg>
