<?xml version="1.0" encoding="utf-8"?>
<!-- Generator: Adobe Illustrator 16.0.4, SVG Export Plug-In . SVG Version: 6.00 Build 0)  -->
<!DOCTYPE svg PUBLIC "-//W3C//DTD SVG 1.1//EN" "http://www.w3.org/Graphics/SVG/1.1/DTD/svg11.dtd">
<svg version="1.1" id="Background_xA0_Image_1_" xmlns="http://www.w3.org/2000/svg" xmlns:xlink="http://www.w3.org/1999/xlink"
	 x="0px" y="0px" width="128px" height="128px" viewBox="0 0 128 128" enable-background="new 0 0 128 128" xml:space="preserve">
<path fill="#FFFFFF" d="M103.435,25.312c-1.105-1.553-3.68-1.78-4.95-0.397c-0.269,0.273-26.211,26.992-38.932,41.462
	c-0.223-0.028-0.444-0.053-0.661-0.053h-1.07l0.196,2.601l-0.782,0.443L43.358,87.992c-2.926-0.582-6.353,0.354-8.707,3.438
	C29.608,98.033,24,103.905,24,103.905c13.105,0,23.053,1.56,24.936-7.971c0.188-0.949,0.188-1.836,0.04-2.649l17.591-15.252
	l0.394-1.01l2.791-0.045l-0.346-1.236c-0.048-0.169-0.113-0.348-0.181-0.525c14.151-14.438,34.266-46.435,34.473-46.764l0.096-0.197
	C104.161,27.204,104.036,26.16,103.435,25.312z"/>
</svg>
