<?xml version="1.0" encoding="utf-8"?>
<!-- Generator: Adobe Illustrator 16.0.4, SVG Export Plug-In . SVG Version: 6.00 Build 0)  -->
<!DOCTYPE svg PUBLIC "-//W3C//DTD SVG 1.1//EN" "http://www.w3.org/Graphics/SVG/1.1/DTD/svg11.dtd">
<svg version="1.1" id="Layer_1" xmlns="http://www.w3.org/2000/svg" xmlns:xlink="http://www.w3.org/1999/xlink" x="0px" y="0px"
	 width="512px" height="128px" viewBox="0 0 512 128" enable-background="new 0 0 512 128" xml:space="preserve">
<g id="code_portfolio">
	<g>
		<path fill="#FFFFFF" d="M112.812,59.723c-0.125-0.953-0.446-1.812-0.963-2.578c-0.752-1.031-1.919-1.547-3.501-1.547
			c-2.256,0-3.799,1.117-4.628,3.352c-0.439,1.185-0.658,2.759-0.658,4.722c0,1.871,0.219,3.375,0.658,4.512
			c0.799,2.125,2.302,3.188,4.511,3.188c1.566,0,2.678-0.422,3.336-1.267c0.658-0.844,1.057-1.938,1.198-3.28h6.82
			c-0.157,2.03-0.892,3.952-2.205,5.766c-2.097,2.923-5.201,4.384-9.314,4.384c-4.114,0-7.14-1.22-9.08-3.656
			c-1.94-2.438-2.909-5.598-2.909-9.481c0-4.382,1.071-7.792,3.214-10.229s5.099-3.656,8.869-3.656c3.206,0,5.83,0.719,7.871,2.156
			c2.041,1.437,3.249,3.977,3.625,7.617h-6.844V59.723z"/>
		<path fill="#FFFFFF" d="M145.531,72.98c-2.156,2.66-5.43,3.992-9.82,3.992s-7.664-1.332-9.82-3.992
			c-2.156-2.662-3.234-5.866-3.234-9.613c0-3.684,1.078-6.877,3.234-9.578c2.156-2.701,5.43-4.051,9.82-4.051
			s7.664,1.351,9.82,4.051c2.156,2.7,3.234,5.894,3.234,9.578C148.766,67.114,147.688,70.318,145.531,72.98z M140.188,69.288
			c1.047-1.39,1.57-3.362,1.57-5.921c0-2.559-0.523-4.528-1.57-5.909s-2.547-2.071-4.5-2.071s-3.457,0.69-4.512,2.071
			c-1.055,1.381-1.582,3.351-1.582,5.909c0,2.558,0.527,4.531,1.582,5.921c1.055,1.389,2.559,2.083,4.512,2.083
			S139.141,70.677,140.188,69.288z"/>
		<path fill="#FFFFFF" d="M167.094,50.969c1.203,0.68,2.18,1.621,2.93,2.824V41.605h6.773v34.5h-6.492v-3.539
			c-0.953,1.516-2.039,2.617-3.258,3.305c-1.219,0.688-2.734,1.031-4.547,1.031c-2.984,0-5.496-1.207-7.535-3.621
			s-3.059-5.512-3.059-9.293c0-4.359,1.004-7.789,3.012-10.289s4.691-3.75,8.051-3.75C164.516,49.949,165.891,50.289,167.094,50.969
			z M168.734,69.168c0.984-1.406,1.477-3.227,1.477-5.461c0-3.125-0.789-5.359-2.367-6.703c-0.969-0.812-2.094-1.219-3.375-1.219
			c-1.953,0-3.387,0.738-4.301,2.215s-1.371,3.309-1.371,5.496c0,2.359,0.465,4.246,1.395,5.66c0.93,1.414,2.34,2.121,4.23,2.121
			C166.312,71.277,167.75,70.574,168.734,69.168z"/>
		<path fill="#FFFFFF" d="M199.515,51.076c1.782,0.798,3.253,2.058,4.415,3.779c1.046,1.518,1.725,3.278,2.035,5.281
			c0.18,1.174,0.253,2.864,0.22,5.07h-18.606c0.104,2.562,0.994,4.358,2.671,5.392c1.021,0.641,2.248,0.961,3.683,0.961
			c1.521,0,2.758-0.392,3.709-1.173c0.519-0.422,0.977-1.008,1.375-1.758h6.819c-0.18,1.517-1.005,3.056-2.477,4.617
			c-2.288,2.483-5.492,3.728-9.611,3.728c-3.4,0-6.4-1.049-8.999-3.145s-3.898-5.505-3.898-10.228c0-4.425,1.173-7.819,3.52-10.18
			c2.346-2.361,5.391-3.542,9.135-3.542C195.729,49.879,197.732,50.278,199.515,51.076z M189.521,56.847
			c-0.944,0.973-1.537,2.291-1.779,3.954h11.508c-0.122-1.773-0.714-3.119-1.779-4.037c-1.064-0.918-2.386-1.377-3.962-1.377
			C191.794,55.387,190.465,55.874,189.521,56.847z"/>
		<path fill="#FFFFFF" d="M244.382,53.301c2.083,2.203,3.125,5.438,3.125,9.703c0,4.5-1.019,7.93-3.055,10.289
			c-2.037,2.359-4.659,3.539-7.867,3.539c-2.044,0-3.743-0.508-5.096-1.523c-0.739-0.562-1.462-1.383-2.17-2.461V86.16h-6.609
			V50.559h6.398v3.773c0.723-1.109,1.494-1.984,2.312-2.625c1.494-1.141,3.271-1.711,5.331-1.711
			C239.755,49.996,242.298,51.098,244.382,53.301z M239.256,58.105c-0.908-1.516-2.38-2.273-4.416-2.273
			c-2.447,0-4.128,1.148-5.043,3.445c-0.474,1.219-0.71,2.766-0.71,4.641c0,2.969,0.796,5.055,2.39,6.258
			c0.947,0.703,2.068,1.055,3.363,1.055c1.878,0,3.312-0.719,4.298-2.155c0.986-1.437,1.48-3.353,1.48-5.742
			C240.617,61.363,240.163,59.621,239.256,58.105z"/>
		<path fill="#FFFFFF" d="M273.523,72.98c-2.156,2.66-5.431,3.992-9.82,3.992c-4.391,0-7.664-1.332-9.82-3.992
			c-2.156-2.662-3.234-5.866-3.234-9.613c0-3.684,1.078-6.877,3.234-9.578c2.156-2.701,5.43-4.051,9.82-4.051
			c4.39,0,7.664,1.351,9.82,4.051s3.233,5.894,3.233,9.578C276.758,67.114,275.68,70.318,273.523,72.98z M268.18,69.288
			c1.047-1.39,1.57-3.362,1.57-5.921c0-2.559-0.523-4.528-1.57-5.909s-2.547-2.071-4.5-2.071s-3.457,0.69-4.512,2.071
			s-1.582,3.351-1.582,5.909c0,2.558,0.527,4.531,1.582,5.921c1.055,1.389,2.559,2.083,4.512,2.083S267.133,70.677,268.18,69.288z"
			/>
		<path fill="#FFFFFF" d="M295.73,49.961c0.086,0.008,0.276,0.02,0.574,0.035v6.844c-0.423-0.047-0.798-0.078-1.125-0.094
			c-0.328-0.016-0.595-0.023-0.798-0.023c-2.688,0-4.491,0.875-5.414,2.625c-0.516,0.984-0.772,2.5-0.772,4.547v12.21h-6.728V50.559
			h6.375v4.453c1.031-1.703,1.931-2.867,2.695-3.492c1.25-1.047,2.875-1.57,4.875-1.57C295.539,49.949,295.645,49.953,295.73,49.961
			z"/>
		<path fill="#FFFFFF" d="M297.594,55.551v-4.758h3.562v-7.125h6.609v7.125h4.147v4.758h-4.147v13.5
			c0,1.047,0.133,1.699,0.397,1.957s1.078,0.387,2.438,0.387c0.203,0,0.418-0.004,0.645-0.012s0.449-0.02,0.668-0.035v4.992
			l-3.164,0.117c-3.156,0.109-5.312-0.438-6.469-1.641c-0.75-0.767-1.125-1.945-1.125-3.539V55.551H297.594z"/>
		<path fill="#FFFFFF" d="M326.773,41.242c0.344,0.023,0.812,0.059,1.406,0.105v5.438c-0.375-0.047-1.005-0.082-1.888-0.105
			s-1.492,0.172-1.828,0.586s-0.504,0.871-0.504,1.371s0,1.219,0,2.156h4.383v4.711h-4.383v20.602h-6.633V55.504h-3.75v-4.711h3.655
			v-1.641c0-2.734,0.461-4.617,1.384-5.648c0.969-1.531,3.305-2.297,7.008-2.297C326.047,41.207,326.43,41.219,326.773,41.242z"/>
		<path fill="#FFFFFF" d="M353.492,72.98c-2.156,2.66-5.43,3.992-9.82,3.992c-4.39,0-7.664-1.332-9.82-3.992
			c-2.156-2.662-3.233-5.866-3.233-9.613c0-3.684,1.077-6.877,3.233-9.578s5.431-4.051,9.82-4.051c4.391,0,7.664,1.351,9.82,4.051
			s3.234,5.894,3.234,9.578C356.727,67.114,355.648,70.318,353.492,72.98z M348.148,69.288c1.047-1.39,1.569-3.362,1.569-5.921
			c0-2.559-0.522-4.528-1.569-5.909s-2.547-2.071-4.5-2.071s-3.457,0.69-4.513,2.071c-1.055,1.381-1.581,3.351-1.581,5.909
			c0,2.558,0.526,4.531,1.581,5.921c1.056,1.389,2.56,2.083,4.513,2.083S347.102,70.677,348.148,69.288z"/>
		<path fill="#FFFFFF" d="M368.328,76.105h-6.68V41.559h6.68V76.105z"/>
		<path fill="#FFFFFF" d="M381.711,47.512h-6.773v-6.164h6.773V47.512z M374.938,50.559h6.773v25.546h-6.773V50.559z"/>
		<path fill="#FFFFFF" d="M409.484,72.98c-2.156,2.66-5.431,3.992-9.82,3.992c-4.391,0-7.664-1.332-9.82-3.992
			c-2.156-2.662-3.234-5.866-3.234-9.613c0-3.684,1.078-6.877,3.234-9.578s5.43-4.051,9.82-4.051c4.39,0,7.664,1.351,9.82,4.051
			c2.155,2.7,3.233,5.894,3.233,9.578C412.719,67.114,411.641,70.318,409.484,72.98z M404.141,69.288
			c1.047-1.39,1.57-3.362,1.57-5.921c0-2.559-0.523-4.528-1.57-5.909s-2.547-2.071-4.5-2.071s-3.457,0.69-4.512,2.071
			s-1.582,3.351-1.582,5.909c0,2.558,0.527,4.531,1.582,5.921c1.055,1.389,2.559,2.083,4.512,2.083S403.094,70.677,404.141,69.288z"
			/>
	</g>
</g>
</svg>
