<?xml version="1.0" encoding="utf-8"?>
<!-- Generator: Adobe Illustrator 16.0.4, SVG Export Plug-In . SVG Version: 6.00 Build 0)  -->
<!DOCTYPE svg PUBLIC "-//W3C//DTD SVG 1.1//EN" "http://www.w3.org/Graphics/SVG/1.1/DTD/svg11.dtd">
<svg version="1.1" id="Layer_1" xmlns="http://www.w3.org/2000/svg" xmlns:xlink="http://www.w3.org/1999/xlink" x="0px" y="0px"
	 width="512px" height="128px" viewBox="0 0 512 128" enable-background="new 0 0 512 128" xml:space="preserve">
<g>
	<path fill="#000000" d="M62.613,28.568h-45.49v27.266H61.29v16.094H17.123v37.92h45.49v16.095H0V12.475h62.613V28.568z"/>
	<path fill="#000000" d="M81.941,54.363h16.535v6.395c3.037-3.186,5.732-5.365,8.083-6.541c2.4-1.225,5.242-1.838,8.525-1.838
		c4.36,0,8.917,1.422,13.669,4.263l-7.569,15.14c-3.136-2.254-6.198-3.381-9.186-3.381c-9.015,0-13.522,6.811-13.522,20.43v37.112
		H81.941V54.363z"/>
	<path fill="#000000" d="M138.013,24.601c0-2.891,1.053-5.39,3.16-7.496c2.106-2.106,4.63-3.16,7.569-3.16
		c2.988,0,5.536,1.054,7.643,3.16c2.106,2.058,3.16,4.581,3.16,7.569s-1.054,5.537-3.16,7.643c-2.058,2.107-4.582,3.16-7.57,3.16
		c-2.989,0-5.537-1.053-7.643-3.16C139.066,30.211,138.013,27.639,138.013,24.601z M157.047,54.363v71.579h-16.535V54.363H157.047z"
		/>
	<path fill="#000000" d="M233.696,57.45v21.974c-3.773-4.605-7.153-7.766-10.142-9.48c-2.939-1.764-6.394-2.646-10.362-2.646
		c-6.222,0-11.39,2.181-15.506,6.54c-4.115,4.361-6.173,9.824-6.173,16.389c0,6.713,1.984,12.225,5.953,16.535
		c4.017,4.312,9.137,6.467,15.358,6.467c3.969,0,7.471-0.856,10.509-2.572c2.939-1.665,6.394-4.898,10.362-9.7v21.826
		C226.983,126.26,220.272,128,213.56,128c-11.072,0-20.332-3.576-27.779-10.729c-7.448-7.202-11.17-16.143-11.17-26.823
		s3.772-19.695,11.317-27.045c7.544-7.349,16.804-11.023,27.779-11.023C220.762,52.379,227.424,54.07,233.696,57.45z"/>
	<path fill="#000000" d="M316.445,12.475v97.373h33.363v16.095h-50.486V12.475H316.445z"/>
	<path fill="#000000" d="M428.074,94.048h-51.295c0.441,5.88,2.352,10.558,5.732,14.036c3.381,3.43,7.717,5.145,13.008,5.145
		c4.115,0,7.521-0.979,10.215-2.939c2.645-1.959,5.658-5.585,9.039-10.877l13.963,7.791c-2.156,3.674-4.434,6.822-6.834,9.443
		s-4.973,4.776-7.717,6.467c-2.744,1.689-5.707,2.927-8.893,3.711c-3.186,0.783-6.639,1.176-10.361,1.176
		c-10.682,0-19.254-3.429-25.721-10.289c-6.469-6.907-9.701-16.068-9.701-27.484c0-11.317,3.135-20.479,9.406-27.485
		c6.32-6.907,14.697-10.362,25.133-10.362c10.535,0,18.861,3.357,24.986,10.068c6.074,6.664,9.113,15.898,9.113,27.705
		L428.074,94.048z M411.1,80.525c-2.305-8.818-7.863-13.228-16.684-13.228c-2.008,0-3.895,0.307-5.658,0.919
		c-1.764,0.613-3.369,1.494-4.812,2.645c-1.445,1.152-2.684,2.536-3.711,4.152c-1.029,1.617-1.812,3.455-2.354,5.512H411.1z"/>
	<path fill="#000000" d="M511.338,94.048h-51.295c0.441,5.88,2.352,10.558,5.732,14.036c3.381,3.43,7.717,5.145,13.008,5.145
		c4.115,0,7.521-0.979,10.215-2.939c2.645-1.959,5.658-5.585,9.039-10.877L512,107.203c-2.156,3.674-4.434,6.822-6.834,9.443
		s-4.973,4.776-7.717,6.467c-2.744,1.689-5.707,2.927-8.893,3.711c-3.186,0.783-6.639,1.176-10.361,1.176
		c-10.682,0-19.254-3.429-25.723-10.289c-6.467-6.907-9.699-16.068-9.699-27.484c0-11.317,3.135-20.479,9.406-27.485
		c6.32-6.907,14.697-10.362,25.133-10.362c10.535,0,18.861,3.357,24.986,10.068c6.074,6.664,9.113,15.898,9.113,27.705
		L511.338,94.048z M494.363,80.525c-2.305-8.818-7.863-13.228-16.684-13.228c-2.008,0-3.895,0.307-5.658,0.919
		c-1.764,0.613-3.369,1.494-4.812,2.645c-1.445,1.152-2.684,2.536-3.713,4.152c-1.027,1.617-1.811,3.455-2.352,5.512H494.363z"/>
</g>
</svg>
