<?xml version="1.0" encoding="utf-8"?>
<!-- Generator: Adobe Illustrator 16.0.4, SVG Export Plug-In . SVG Version: 6.00 Build 0)  -->
<!DOCTYPE svg PUBLIC "-//W3C//DTD SVG 1.1//EN" "http://www.w3.org/Graphics/SVG/1.1/DTD/svg11.dtd">
<svg version="1.1" id="www" xmlns="http://www.w3.org/2000/svg" xmlns:xlink="http://www.w3.org/1999/xlink" x="0px" y="0px"
	 width="512px" height="128px" viewBox="0 0 512 128" enable-background="new 0 0 512 128" xml:space="preserve">
<g>
	<path fill="#FFFFFF" d="M97.831,51.559h6.773l3.891,18.398l3.984-18.398h6.961l-7.406,25.547h-6.867l-4.008-18.609l-4.055,18.609
		h-6.938l-7.172-25.547h7.172l3.984,18.328L97.831,51.559z"/>
	<path fill="#FFFFFF" d="M139.768,52.076c1.781,0.798,3.254,2.058,4.414,3.779c1.047,1.518,1.726,3.278,2.036,5.281
		c0.18,1.174,0.253,2.864,0.22,5.07h-18.606c0.104,2.562,0.994,4.359,2.672,5.391c1.02,0.641,2.247,0.961,3.683,0.961
		c1.521,0,2.758-0.391,3.709-1.172c0.519-0.422,0.977-1.008,1.375-1.758h6.819c-0.18,1.516-1.005,3.055-2.477,4.617
		c-2.288,2.484-5.492,3.727-9.611,3.727c-3.399,0-6.399-1.048-8.998-3.144c-2.599-2.095-3.898-5.505-3.898-10.228
		c0-4.425,1.173-7.819,3.52-10.18c2.346-2.361,5.392-3.542,9.136-3.542C135.982,50.879,137.985,51.278,139.768,52.076z
		 M129.774,57.847c-0.944,0.973-1.537,2.291-1.779,3.954h11.508c-0.122-1.773-0.715-3.119-1.779-4.037
		c-1.065-0.918-2.386-1.377-3.962-1.377C132.047,56.387,130.719,56.874,129.774,57.847z"/>
	<path fill="#FFFFFF" d="M171.629,54.629c1.911,2.422,2.866,5.547,2.866,9.375c0,3.969-0.942,7.258-2.827,9.867
		s-4.516,3.914-7.892,3.914c-2.12,0-3.824-0.422-5.112-1.266c-0.77-0.5-1.602-1.375-2.497-2.625v3.211h-6.586v-34.5h6.68v12.281
		c0.849-1.188,1.784-2.094,2.807-2.719c1.211-0.781,2.753-1.172,4.624-1.172C167.072,50.996,169.718,52.207,171.629,54.629z
		 M166.046,70.191c0.961-1.391,1.441-3.219,1.441-5.484c0-1.812-0.236-3.312-0.709-4.5c-0.897-2.25-2.552-3.375-4.963-3.375
		c-2.441,0-4.119,1.102-5.033,3.305c-0.473,1.172-0.709,2.688-0.709,4.547c0,2.188,0.488,4,1.465,5.438
		c0.978,1.438,2.466,2.156,4.467,2.156C163.737,72.277,165.085,71.582,166.046,70.191z"/>
	<path fill="#FFFFFF" d="M206.019,51.969c1.203,0.68,2.18,1.621,2.93,2.824V42.605h6.773v34.5h-6.492v-3.539
		c-0.953,1.516-2.039,2.617-3.258,3.305s-2.734,1.031-4.547,1.031c-2.984,0-5.496-1.207-7.535-3.621s-3.059-5.512-3.059-9.293
		c0-4.359,1.004-7.789,3.012-10.289s4.691-3.75,8.051-3.75C203.44,50.949,204.815,51.289,206.019,51.969z M207.659,70.168
		c0.984-1.406,1.477-3.227,1.477-5.461c0-3.125-0.789-5.359-2.367-6.703c-0.969-0.812-2.094-1.219-3.375-1.219
		c-1.953,0-3.387,0.738-4.301,2.215s-1.371,3.309-1.371,5.496c0,2.359,0.465,4.246,1.395,5.66s2.34,2.121,4.23,2.121
		S206.675,71.574,207.659,70.168z"/>
	<path fill="#FFFFFF" d="M238.439,52.076c1.781,0.798,3.254,2.058,4.414,3.779c1.047,1.518,1.726,3.278,2.036,5.281
		c0.18,1.174,0.253,2.864,0.22,5.07h-18.606c0.104,2.562,0.994,4.359,2.672,5.391c1.02,0.641,2.247,0.961,3.683,0.961
		c1.521,0,2.758-0.391,3.709-1.172c0.519-0.422,0.977-1.008,1.375-1.758h6.819c-0.18,1.516-1.005,3.055-2.477,4.617
		c-2.288,2.484-5.492,3.727-9.611,3.727c-3.399,0-6.399-1.048-8.998-3.144c-2.599-2.095-3.898-5.505-3.898-10.228
		c0-4.425,1.173-7.819,3.52-10.18c2.346-2.361,5.392-3.542,9.136-3.542C234.654,50.879,236.657,51.278,238.439,52.076z
		 M228.446,57.847c-0.944,0.973-1.537,2.291-1.779,3.954h11.508c-0.122-1.773-0.715-3.119-1.779-4.037
		c-1.065-0.918-2.386-1.377-3.962-1.377C230.719,56.387,229.391,56.874,228.446,57.847z"/>
	<path fill="#FFFFFF" d="M264.226,51.559h7.172l-9.226,25.547h-7.043l-9.161-25.547h7.5l5.32,18.844L264.226,51.559z"/>
	<path fill="#FFFFFF" d="M291.83,52.076c1.781,0.798,3.254,2.058,4.414,3.779c1.047,1.518,1.726,3.278,2.036,5.281
		c0.18,1.174,0.253,2.864,0.22,5.07h-18.606c0.104,2.562,0.994,4.359,2.672,5.391c1.02,0.641,2.247,0.961,3.683,0.961
		c1.521,0,2.758-0.391,3.709-1.172c0.519-0.422,0.977-1.008,1.375-1.758h6.819c-0.18,1.516-1.005,3.055-2.477,4.617
		c-2.288,2.484-5.492,3.727-9.611,3.727c-3.399,0-6.399-1.048-8.998-3.144c-2.599-2.095-3.898-5.505-3.898-10.228
		c0-4.425,1.173-7.819,3.52-10.18c2.346-2.361,5.392-3.542,9.136-3.542C288.045,50.879,290.048,51.278,291.83,52.076z
		 M281.837,57.847c-0.944,0.973-1.537,2.291-1.779,3.954h11.508c-0.122-1.773-0.715-3.119-1.779-4.037
		c-1.065-0.918-2.386-1.377-3.962-1.377C284.109,56.387,282.781,56.874,281.837,57.847z"/>
	<path fill="#FFFFFF" d="M308.698,77.105h-6.68V42.559h6.68V77.105z"/>
	<path fill="#FFFFFF" d="M336.519,73.98c-2.156,2.661-5.43,3.992-9.82,3.992s-7.664-1.331-9.82-3.992
		c-2.156-2.662-3.234-5.866-3.234-9.613c0-3.684,1.078-6.877,3.234-9.578s5.43-4.051,9.82-4.051s7.664,1.351,9.82,4.051
		s3.234,5.894,3.234,9.578C339.753,68.114,338.675,71.318,336.519,73.98z M331.175,70.288c1.047-1.389,1.57-3.362,1.57-5.921
		s-0.523-4.528-1.57-5.909s-2.547-2.071-4.5-2.071s-3.457,0.69-4.512,2.071s-1.582,3.351-1.582,5.909s0.527,4.532,1.582,5.921
		s2.559,2.083,4.512,2.083S330.128,71.677,331.175,70.288z"/>
	<path fill="#FFFFFF" d="M366.018,54.301c2.084,2.203,3.126,5.438,3.126,9.703c0,4.5-1.019,7.93-3.055,10.289
		c-2.037,2.359-4.659,3.539-7.867,3.539c-2.045,0-3.743-0.508-5.096-1.523c-0.739-0.562-1.462-1.383-2.17-2.461V87.16h-6.609V51.559
		h6.398v3.773c0.724-1.109,1.494-1.984,2.312-2.625c1.494-1.141,3.271-1.711,5.331-1.711
		C361.391,50.996,363.935,52.098,366.018,54.301z M360.892,59.105c-0.908-1.516-2.38-2.273-4.416-2.273
		c-2.447,0-4.128,1.148-5.044,3.445c-0.474,1.219-0.71,2.766-0.71,4.641c0,2.969,0.797,5.055,2.39,6.258
		c0.947,0.703,2.068,1.055,3.363,1.055c1.878,0,3.312-0.719,4.298-2.156c0.987-1.438,1.48-3.352,1.48-5.742
		C362.253,62.363,361.799,60.621,360.892,59.105z"/>
	<path fill="#FFFFFF" d="M405.729,51.652c1.094,0.438,2.086,1.203,2.977,2.297c0.719,0.891,1.203,1.984,1.453,3.281
		c0.156,0.859,0.234,2.117,0.234,3.773l-0.047,16.102h-6.844V60.84c0-0.969-0.156-1.766-0.469-2.391
		c-0.594-1.188-1.688-1.781-3.281-1.781c-1.844,0-3.117,0.766-3.82,2.297c-0.359,0.812-0.539,1.789-0.539,2.93v15.211h-6.727V61.895
		c0-1.516-0.156-2.617-0.469-3.305c-0.562-1.234-1.664-1.852-3.305-1.852c-1.906,0-3.188,0.617-3.844,1.852
		c-0.359,0.703-0.539,1.75-0.539,3.141v15.375h-6.773v-25.5h6.492v3.727c0.828-1.328,1.609-2.273,2.344-2.836
		c1.297-1,2.977-1.5,5.039-1.5c1.953,0,3.531,0.43,4.734,1.289c0.969,0.797,1.703,1.82,2.203,3.07
		c0.875-1.5,1.961-2.602,3.258-3.305c1.375-0.703,2.906-1.055,4.594-1.055C403.526,50.996,404.636,51.215,405.729,51.652z"/>
	<path fill="#FFFFFF" d="M433.182,52.076c1.781,0.798,3.254,2.058,4.414,3.779c1.047,1.518,1.726,3.278,2.036,5.281
		c0.18,1.174,0.253,2.864,0.22,5.07h-18.606c0.104,2.562,0.994,4.359,2.672,5.391c1.02,0.641,2.247,0.961,3.683,0.961
		c1.521,0,2.758-0.391,3.709-1.172c0.519-0.422,0.977-1.008,1.375-1.758h6.819c-0.18,1.516-1.005,3.055-2.477,4.617
		c-2.288,2.484-5.492,3.727-9.611,3.727c-3.399,0-6.399-1.048-8.998-3.144c-2.599-2.095-3.898-5.505-3.898-10.228
		c0-4.425,1.173-7.819,3.52-10.18c2.346-2.361,5.392-3.542,9.136-3.542C429.396,50.879,431.399,51.278,433.182,52.076z
		 M423.188,57.847c-0.944,0.973-1.537,2.291-1.779,3.954h11.508c-0.122-1.773-0.715-3.119-1.779-4.037
		c-1.065-0.918-2.386-1.377-3.962-1.377C425.461,56.387,424.133,56.874,423.188,57.847z"/>
	<path fill="#FFFFFF" d="M463.83,53.023c1.672,1.383,2.509,3.676,2.509,6.879v17.203h-6.844V61.566c0-1.344-0.179-2.375-0.535-3.094
		c-0.651-1.312-1.893-1.969-3.723-1.969c-2.249,0-3.792,0.961-4.63,2.883c-0.435,1.016-0.651,2.312-0.651,3.891v13.828h-6.68v-25.5
		h6.469v3.727c0.855-1.312,1.665-2.258,2.427-2.836c1.369-1.031,3.104-1.547,5.205-1.547
		C460.006,50.949,462.157,51.641,463.83,53.023z"/>
	<path fill="#FFFFFF" d="M469.925,56.551v-4.758h3.562v-7.125h6.609v7.125h4.148v4.758h-4.148v13.5c0,1.047,0.133,1.699,0.398,1.957
		s1.078,0.387,2.438,0.387c0.203,0,0.418-0.004,0.645-0.012s0.449-0.02,0.668-0.035v4.992l-3.164,0.117
		c-3.156,0.109-5.312-0.438-6.469-1.641c-0.75-0.766-1.125-1.945-1.125-3.539V56.551H469.925z"/>
</g>
</svg>
