<?xml version="1.0" encoding="utf-8"?>
<!-- Generator: Adobe Illustrator 16.0.4, SVG Export Plug-In . SVG Version: 6.00 Build 0)  -->
<!DOCTYPE svg PUBLIC "-//W3C//DTD SVG 1.1//EN" "http://www.w3.org/Graphics/SVG/1.1/DTD/svg11.dtd">
<svg version="1.1" id="www" xmlns="http://www.w3.org/2000/svg" xmlns:xlink="http://www.w3.org/1999/xlink" x="0px" y="0px"
	 width="128px" height="128px" viewBox="0 0 128 128" enable-background="new 0 0 128 128" xml:space="preserve">
<g>
	<path fill="#FFFFFF" d="M23.159,51.559h6.773l3.891,18.398l3.984-18.398h6.961l-7.406,25.547h-6.867l-4.008-18.609l-4.055,18.609
		h-6.938L8.323,51.559h7.172l3.984,18.328L23.159,51.559z"/>
	<path fill="#FFFFFF" d="M60.495,51.559h6.773l3.891,18.398l3.984-18.398h6.961l-7.406,25.547h-6.867l-4.008-18.609l-4.055,18.609
		h-6.938l-7.172-25.547h7.172l3.984,18.328L60.495,51.559z"/>
	<path fill="#FFFFFF" d="M97.831,51.559h6.773l3.891,18.398l3.984-18.398h6.961l-7.406,25.547h-6.867l-4.008-18.609l-4.055,18.609
		h-6.938l-7.172-25.547h7.172l3.984,18.328L97.831,51.559z"/>
</g>
</svg>
