<?xml version="1.0" encoding="utf-8"?>
<!-- Generator: Adobe Illustrator 16.0.4, SVG Export Plug-In . SVG Version: 6.00 Build 0)  -->
<!DOCTYPE svg PUBLIC "-//W3C//DTD SVG 1.1//EN" "http://www.w3.org/Graphics/SVG/1.1/DTD/svg11.dtd">
<svg version="1.1" id="Group_1_1_" xmlns="http://www.w3.org/2000/svg" xmlns:xlink="http://www.w3.org/1999/xlink" x="0px" y="0px"
	 width="512px" height="128px" viewBox="0 0 512 128" enable-background="new 0 0 512 128" xml:space="preserve">
<g id="art__x2B__design">
	<g enable-background="new    ">
		<path fill="#FFFFFF" d="M182.259,60.566c1.244-0.156,2.133-0.352,2.668-0.586c0.96-0.406,1.44-1.039,1.44-1.898
			c0-1.047-0.368-1.77-1.105-2.168c-0.736-0.398-1.817-0.598-3.243-0.598c-1.6,0-2.732,0.391-3.397,1.172
			c-0.475,0.578-0.792,1.359-0.95,2.344h-6.445c0.141-2.234,0.769-4.07,1.883-5.508c1.773-2.25,4.818-3.375,9.134-3.375
			c2.809,0,5.304,0.555,7.485,1.664c2.181,1.109,3.271,3.203,3.271,6.281v11.719c0,0.812,0.016,1.797,0.047,2.953
			c0.047,0.875,0.18,1.469,0.398,1.781s0.547,0.57,0.984,0.773v0.984h-7.266c-0.203-0.516-0.344-1-0.422-1.453
			s-0.141-0.969-0.188-1.547c-0.927,1-1.996,1.852-3.206,2.555c-1.446,0.828-3.081,1.242-4.904,1.242
			c-2.326,0-4.247-0.66-5.764-1.98c-1.517-1.32-2.275-3.191-2.275-5.613c0-3.141,1.22-5.414,3.66-6.82
			c1.338-0.766,3.306-1.312,5.903-1.641L182.259,60.566z M186.343,63.684c-0.428,0.266-0.859,0.48-1.295,0.645
			s-1.033,0.316-1.793,0.457l-1.521,0.281c-1.425,0.25-2.449,0.555-3.07,0.914c-1.052,0.609-1.578,1.555-1.578,2.836
			c0,1.141,0.321,1.965,0.964,2.473s1.424,0.762,2.344,0.762c1.459,0,2.804-0.422,4.034-1.266s1.868-2.383,1.916-4.617V63.684z"/>
		<path fill="#FFFFFF" d="M213.027,49.961c0.086,0.008,0.277,0.02,0.574,0.035v6.844c-0.422-0.047-0.797-0.078-1.125-0.094
			s-0.594-0.023-0.797-0.023c-2.688,0-4.492,0.875-5.414,2.625c-0.516,0.984-0.773,2.5-0.773,4.547v12.211h-6.727V50.559h6.375
			v4.453c1.031-1.703,1.93-2.867,2.695-3.492c1.25-1.047,2.875-1.57,4.875-1.57C212.836,49.949,212.941,49.953,213.027,49.961z"/>
		<path fill="#FFFFFF" d="M214.891,55.551v-4.758h3.562v-7.125h6.609v7.125h4.148v4.758h-4.148v13.5
			c0,1.047,0.133,1.699,0.398,1.957s1.078,0.387,2.438,0.387c0.203,0,0.418-0.004,0.645-0.012s0.449-0.02,0.668-0.035v4.992
			l-3.164,0.117c-3.156,0.109-5.312-0.438-6.469-1.641c-0.75-0.766-1.125-1.945-1.125-3.539V55.551H214.891z"/>
		<path fill="#FFFFFF" d="M245.43,66.449v-6.117h9.609v-9.609h6.164v9.609h9.609v6.117h-9.609v9.656h-6.164v-9.656H245.43z"/>
		<path fill="#FFFFFF" d="M301.75,50.969c1.203,0.68,2.18,1.621,2.93,2.824V41.605h6.773v34.5h-6.492v-3.539
			c-0.953,1.516-2.039,2.617-3.258,3.305s-2.734,1.031-4.547,1.031c-2.984,0-5.496-1.207-7.535-3.621s-3.059-5.512-3.059-9.293
			c0-4.359,1.004-7.789,3.012-10.289s4.691-3.75,8.051-3.75C299.172,49.949,300.547,50.289,301.75,50.969z M303.391,69.168
			c0.984-1.406,1.477-3.227,1.477-5.461c0-3.125-0.789-5.359-2.367-6.703c-0.969-0.812-2.094-1.219-3.375-1.219
			c-1.953,0-3.387,0.738-4.301,2.215s-1.371,3.309-1.371,5.496c0,2.359,0.465,4.246,1.395,5.66s2.34,2.121,4.23,2.121
			S302.406,70.574,303.391,69.168z"/>
		<path fill="#FFFFFF" d="M334.171,51.076c1.782,0.798,3.253,2.058,4.415,3.779c1.046,1.518,1.725,3.278,2.035,5.281
			c0.18,1.174,0.253,2.864,0.22,5.07h-18.606c0.104,2.562,0.994,4.359,2.672,5.391c1.02,0.641,2.248,0.961,3.683,0.961
			c1.521,0,2.758-0.391,3.709-1.172c0.519-0.422,0.978-1.008,1.375-1.758h6.819c-0.18,1.516-1.006,3.055-2.477,4.617
			c-2.288,2.484-5.492,3.727-9.611,3.727c-3.399,0-6.399-1.048-8.998-3.144c-2.6-2.095-3.898-5.505-3.898-10.228
			c0-4.426,1.173-7.819,3.52-10.181c2.346-2.361,5.391-3.542,9.135-3.542C330.386,49.879,332.389,50.278,334.171,51.076z
			 M324.178,56.847c-0.943,0.973-1.537,2.291-1.779,3.954h11.508c-0.121-1.773-0.715-3.119-1.779-4.037s-2.386-1.377-3.962-1.377
			C326.451,55.387,325.121,55.873,324.178,56.847z"/>
		<path fill="#FFFFFF" d="M349.398,67.949c0.142,1.188,0.447,2.031,0.918,2.531c0.832,0.891,2.371,1.336,4.616,1.336
			c1.319,0,2.366-0.195,3.144-0.586s1.166-0.977,1.166-1.758c0-0.75-0.312-1.32-0.939-1.711c-0.626-0.391-2.955-1.062-6.987-2.016
			c-2.903-0.719-4.948-1.617-6.136-2.695c-1.188-1.062-1.781-2.594-1.781-4.594c0-2.359,0.928-4.387,2.783-6.082
			s4.467-2.543,7.833-2.543c3.194,0,5.798,0.637,7.81,1.91s3.167,3.473,3.465,6.598h-6.68c-0.094-0.859-0.337-1.539-0.729-2.039
			c-0.736-0.906-1.99-1.359-3.761-1.359c-1.457,0-2.495,0.227-3.114,0.68c-0.618,0.453-0.928,0.984-0.928,1.594
			c0,0.766,0.329,1.32,0.987,1.664c0.657,0.359,2.982,0.977,6.974,1.852c2.661,0.625,4.656,1.57,5.984,2.836
			c1.312,1.281,1.969,2.883,1.969,4.805c0,2.531-0.943,4.598-2.83,6.199s-4.803,2.402-8.748,2.402c-4.023,0-6.994-0.848-8.912-2.543
			s-2.877-3.855-2.877-6.48H349.398z"/>
		<path fill="#FFFFFF" d="M377.781,47.512h-6.773v-6.164h6.773V47.512z M371.008,50.559h6.773v25.547h-6.773V50.559z"/>
		<path fill="#FFFFFF" d="M396.888,50.535c1.623,0.672,2.934,1.906,3.933,3.703v-3.68h6.516v24.234c0,3.297-0.555,5.781-1.664,7.453
			c-1.906,2.875-5.562,4.312-10.969,4.312c-3.266,0-5.93-0.641-7.992-1.922s-3.203-3.195-3.422-5.742h7.266
			c0.188,0.781,0.492,1.344,0.914,1.688c0.719,0.609,1.93,0.914,3.633,0.914c2.406,0,4.016-0.805,4.828-2.414
			c0.531-1.031,0.797-2.766,0.797-5.203v-1.641c-0.641,1.094-1.328,1.914-2.062,2.461c-1.328,1.016-3.055,1.523-5.18,1.523
			c-3.281,0-5.902-1.152-7.863-3.457s-2.941-5.426-2.941-9.363c0-3.797,0.944-6.988,2.832-9.574
			c1.889-2.586,4.564-3.879,8.029-3.879C394.82,49.949,395.936,50.145,396.888,50.535z M399.163,68.852
			c1.073-1.18,1.61-3.059,1.61-5.637c0-2.422-0.51-4.266-1.529-5.531c-1.019-1.266-2.384-1.898-4.096-1.898
			c-2.334,0-3.944,1.102-4.831,3.305c-0.467,1.172-0.7,2.617-0.7,4.336c0,1.484,0.248,2.805,0.746,3.961
			c0.902,2.156,2.521,3.234,4.855,3.234C396.774,70.621,398.089,70.031,399.163,68.852z"/>
		<path fill="#FFFFFF" d="M434.171,52.023c1.673,1.383,2.509,3.676,2.509,6.879v17.203h-6.844V60.566
			c0-1.344-0.178-2.375-0.535-3.094c-0.652-1.312-1.893-1.969-3.723-1.969c-2.249,0-3.792,0.961-4.63,2.883
			c-0.435,1.016-0.651,2.312-0.651,3.891v13.828h-6.68v-25.5h6.469v3.727c0.855-1.312,1.665-2.258,2.428-2.836
			c1.368-1.031,3.104-1.547,5.204-1.547C430.348,49.949,432.498,50.641,434.171,52.023z"/>
	</g>
</g>
</svg>
