<?xml version="1.0" encoding="utf-8"?>
<!-- Generator: Adobe Illustrator 16.0.4, SVG Export Plug-In . SVG Version: 6.00 Build 0)  -->
<!DOCTYPE svg PUBLIC "-//W3C//DTD SVG 1.1//EN" "http://www.w3.org/Graphics/SVG/1.1/DTD/svg11.dtd">
<svg version="1.1" id="Layer_1" xmlns="http://www.w3.org/2000/svg" xmlns:xlink="http://www.w3.org/1999/xlink" x="0px" y="0px"
	 width="64px" height="128px" viewBox="0 0 64 128" enable-background="new 0 0 64 128" xml:space="preserve">
<g id="_x7B__x7D_">
	<text transform="matrix(1 0 0 1 720 450)" font-family="'MyriadPro-Regular'" font-size="12">#66cc66</text>
	<text transform="matrix(1 0 0 1 720 450)" font-family="'MyriadPro-Regular'" font-size="12">#66cc66</text>
	<g>
		<path fill="#FFFFFF" d="M51.051,99.855h-3.24c-3.938,0-6.773-1.061-8.511-3.18s-2.604-6.05-2.604-11.792v-3.938
			c0-5.112-0.67-8.674-2.01-10.685c-1.34-2.01-3.5-3.015-6.479-3.015V60.56c2.98,0,5.142-1.005,6.479-3.015
			c1.34-2.01,2.01-5.571,2.01-10.685v-3.979c0-5.715,0.869-9.632,2.604-11.751c1.736-2.119,4.573-3.179,8.511-3.179h3.24v5.373
			h-1.23c-2.543,0-4.312,0.547-5.312,1.641c-0.999,1.094-1.497,3.706-1.497,7.834v2.625c0,5.66-0.656,9.83-1.969,12.51
			s-3.542,4.662-6.686,5.947c3.144,1.312,5.373,3.309,6.686,5.988c1.312,2.679,1.969,6.85,1.969,12.51v2.625
			c0,4.129,0.499,6.74,1.497,7.834s2.769,1.641,5.312,1.641h1.23V99.855z"/>
	</g>
</g>
</svg>
